{
  "accessors": [
    {
      "bufferView": 2,
      "componentType": 5126,
      "count": 31890,
      "max": [
        1.8742510080337524,
        1.378900170326233,
        0.749911367893219
      ],
      "min": [
        -1.7571247816085815,
        -1.172623872756958,
        -0.5374667644500732
      ],
      "type": "VEC3"
    },
    {
      "bufferView": 2,
      "byteOffset": 382680,
      "componentType": 5126,
      "count": 31890,
      "max": [
        0.9996594190597534,
        0.9999309778213501,
        0.9999496936798096
      ],
      "min": [
        -0.999695897102356,
        -0.9999996423721313,
        -1.0
      ],
      "type": "VEC3"
    },
    {
      "bufferView": 3,
      "componentType": 5126,
      "count": 31890,
      "max": [
        0.9998898506164551,
        0.9996250867843628,
        0.9999958872795105,
        1.0
      ],
      "min": [
        -0.9999924898147583,
        -0.9999967217445374,
        -0.999991238117218,
        -1.0
      ],
      "type": "VEC4"
    },
    {
      "bufferView": 1,
      "componentType": 5126,
      "count": 31890,
      "max": [
        0.995786190032959,
        0.990985095500946
      ],
      "min": [
        0.004213822074234486,
        0.004213822074234486
      ],
      "type": "VEC2"
    },
    {
      "bufferView": 0,
      "componentType": 5125,
      "count": 118092,
      "type": "SCALAR"
    }
  ],
  "asset": {
    "extras": {
      "author": "kenprol (https://sketchfab.com/kenprol)",
      "license": "CC-BY-NC-SA-4.0 (http://creativecommons.org/licenses/by-nc-sa/4.0/)",
      "source": "https://sketchfab.com/3d-models/leather-shoes-c2a5343bf18949fc8d6815034ec7f87d",
      "title": "Leather shoes"
    },
    "generator": "Sketchfab-12.68.0",
    "version": "2.0"
  },
  "bufferViews": [
    {
      "buffer": 0,
      "byteLength": 472368,
      "name": "floatBufferViews",
      "target": 34963
    },
    {
      "buffer": 0,
      "byteLength": 255120,
      "byteOffset": 472368,
      "byteStride": 8,
      "name": "floatBufferViews",
      "target": 34962
    },
    {
      "buffer": 0,
      "byteLength": 765360,
      "byteOffset": 727488,
      "byteStride": 12,
      "name": "floatBufferViews",
      "target": 34962
    },
    {
      "buffer": 0,
      "byteLength": 510240,
      "byteOffset": 1492848,
      "byteStride": 16,
      "name": "floatBufferViews",
      "target": 34962
    }
  ],
  "buffers": [
    {
      "byteLength": 2003088,
      "uri": "scene.bin"
    }
  ],
  "images": [
    {
      "uri": "textures/RootNode_baseColor.jpeg"
    },
    {
      "uri": "textures/RootNode_metallicRoughness.png"
    },
    {
      "uri": "textures/RootNode_normal.png"
    }
  ],
  "materials": [
    {
      "doubleSided": true,
      "name": "RootNode",
      "normalTexture": {
        "index": 2
      },
      "occlusionTexture": {
        "index": 1
      },
      "pbrMetallicRoughness": {
        "baseColorTexture": {
          "index": 0
        },
        "metallicRoughnessTexture": {
          "index": 1
        }
      }
    }
  ],
  "meshes": [
    {
      "name": "Plane.050__0",
      "primitives": [
        {
          "attributes": {
            "NORMAL": 1,
            "POSITION": 0,
            "TANGENT": 2,
            "TEXCOORD_0": 3
          },
          "indices": 4,
          "material": 0,
          "mode": 4
        }
      ]
    }
  ],
  "nodes": [
    {
      "children": [
        1
      ],
      "matrix": [
        1.4605718851089478,
        0.0,
        0.0,
        0.0,
        0.0,
        3.243121071936245e-16,
        -1.4605718851089478,
        0.0,
        0.0,
        1.4605718851089478,
        3.243121071936245e-16,
        0.0,
        0.0,
        0.0,
        0.0,
        1.0
      ],
      "name": "Sketchfab_model"
    },
    {
      "children": [
        2
      ],
      "matrix": [
        1.0,
        0.0,
        0.0,
        0.0,
        0.0,
        0.0,
        1.0,
        0.0,
        0.0,
        -1.0,
        0.0,
        0.0,
        0.0,
        0.0,
        0.0,
        1.0
      ],
      "name": "11b593218d0249dca9ddbe7f99d75cf4.fbx"
    },
    {
      "children": [
        3
      ],
      "name": "RootNode"
    },
    {
      "children": [
        4
      ],
      "matrix": [
        100.0,
        0.0,
        0.0,
        0.0,
        0.0,
        -1.629206793918314e-05,
        -99.99999999999868,
        0.0,
        0.0,
        99.99999999999868,
        -1.629206793918314e-05,
        0.0,
        33.33135223388672,
        53.719478607177734,
        65.55108642578125,
        1.0
      ],
      "name": "Plane.050"
    },
    {
      "mesh": 0,
      "name": "Plane.050__0"
    }
  ],
  "samplers": [
    {
      "magFilter": 9729,
      "minFilter": 9987,
      "wrapS": 10497,
      "wrapT": 10497
    }
  ],
  "scene": 0,
  "scenes": [
    {
      "name": "Sketchfab_Scene",
      "nodes": [
        0
      ]
    }
  ],
  "textures": [
    {
      "sampler": 0,
      "source": 0
    },
    {
      "sampler": 0,
      "source": 1
    },
    {
      "sampler": 0,
      "source": 2
    }
  ]
}
